<svg width="457" height="461" viewBox="0 0 457 461" fill="none" xmlns="http://www.w3.org/2000/svg">
<path d="M245.466 1.44354C249.765 5.1362 252.84 9.56123 256.029 14.1935C257.092 15.7197 258.156 17.2457 259.22 18.7717C260.029 19.9367 260.029 19.9367 260.853 21.1252C263.372 24.745 265.92 28.3437 268.466 31.9435C269.466 33.3601 270.466 34.7768 271.466 36.1935C271.961 36.8948 272.456 37.596 272.966 38.3185C277.466 44.6935 277.466 44.6935 278.967 46.8198C279.964 48.2325 280.962 49.6451 281.96 51.0576C284.502 54.6577 287.041 58.2608 289.572 61.8693C292.521 66.0717 295.486 70.2629 298.466 74.4435C298.907 75.0626 299.347 75.6817 299.801 76.3195C301.013 78.0141 302.237 79.6992 303.466 81.381C304.147 82.3182 304.827 83.2553 305.529 84.2209C307.464 86.4412 308.699 87.5012 311.466 88.4435C316.101 88.2796 316.101 88.2796 320.067 86.1511C321.615 84.262 322.414 82.5844 323.298 80.3107C323.618 79.5088 323.939 78.7068 324.268 77.8805C324.769 76.6124 324.769 76.6124 325.279 75.3185C331.143 61.0366 338.573 49.9562 353.173 43.3693C367.291 37.6693 382.803 38.6298 396.826 44.2678C414.364 52.077 429.221 65.9009 436.88 83.7365C442.813 99.3659 444.732 115.623 438.755 131.596C434.893 140.128 430.017 146.879 422.466 152.444C421.851 152.904 421.236 153.364 420.603 153.838C411.695 159.943 401.187 161.879 390.716 163.537C387.113 164.542 385.693 165.474 383.466 168.444C382.744 172.385 382.47 174.781 384.548 178.248C386.411 180.446 388.402 182.432 390.466 184.444C391.58 185.554 392.691 186.666 393.802 187.779C395.603 189.584 397.406 191.384 399.226 193.169C402.128 196.024 404.907 198.917 407.543 202.02C412.036 207.18 416.882 211.965 421.74 216.779C422.714 217.749 423.688 218.72 424.662 219.69C427.719 222.736 430.78 225.777 433.841 228.819C437.413 232.366 440.982 235.916 444.548 239.469C445.971 240.886 447.398 242.3 448.824 243.714C449.682 244.569 450.54 245.424 451.425 246.304C452.183 247.057 452.941 247.811 453.723 248.586C456.787 251.85 457 254.66 456.923 259.014C455.52 266.471 447.123 271.53 441.556 275.959C438.127 278.716 434.794 281.567 431.466 284.444C426.477 288.744 421.424 292.948 416.31 297.1C412.989 299.837 409.726 302.635 406.466 305.444C401.411 309.797 396.314 314.085 391.122 318.276C389.268 319.789 387.436 321.331 385.622 322.893C379.28 328.303 374.49 331.895 366.029 332.819C358.584 332.035 353.007 330.089 347.896 324.447C344.872 320.209 343.926 315.494 342.802 310.483C340.622 300.971 337.757 294.133 329.466 288.444C321.469 284.227 312.144 284.162 303.404 286.135C296.932 288.332 291.108 291.618 285.466 295.444C284.851 295.848 284.236 296.253 283.603 296.67C275.088 303.051 268.788 314.24 266.767 324.565C265.94 332.476 266.721 339.879 271.466 346.444C276.378 352.418 282.719 355.174 289.743 357.959C295.838 360.403 300.504 363.299 303.673 369.326C305.741 374.848 306.259 380.975 304.466 386.631C298.631 399.354 283.872 408.526 273.31 417.1C269.989 419.837 266.726 422.635 263.466 425.444C258.454 429.762 253.384 433.993 248.247 438.162C245.669 440.277 243.12 442.42 240.58 444.581C238.927 445.986 237.267 447.385 235.607 448.783C233.615 450.462 231.654 452.161 229.701 453.885C224.611 458.249 221.307 460.786 214.466 460.444C208.57 458.326 206.157 454.837 202.841 449.819C201.787 448.274 200.732 446.73 199.677 445.186C199.144 444.397 198.612 443.607 198.063 442.794C195.581 439.141 193.023 435.544 190.466 431.944C189.466 430.527 188.466 429.111 187.466 427.694C186.971 426.992 186.476 426.291 185.966 425.569C181.466 419.194 181.466 419.194 179.966 417.068C178.967 415.654 177.969 414.239 176.971 412.825C173.933 408.522 170.897 404.218 167.863 399.913C166.365 397.79 164.863 395.669 163.361 393.549C161.441 390.836 159.545 388.11 157.665 385.369C157.22 384.728 156.775 384.086 156.316 383.425C155.486 382.228 154.664 381.027 153.85 379.82C151.458 376.395 149.284 374.187 145.466 372.444C141.734 372.509 139.405 372.713 136.427 375.029C133.941 378.09 132.867 381.318 131.654 385.006C126.816 398.614 119.397 409.543 106.279 416.381C92.2465 422.722 77.2653 422.661 62.7162 417.694C60.9522 416.977 59.2016 416.227 57.4662 415.444C56.1301 414.846 56.1301 414.846 54.767 414.237C38.972 406.418 24.8711 390.971 18.9505 374.397C13.3888 357.638 12.4778 341.529 20.1537 325.131C26.4014 313.656 35.7956 304.971 48.474 301.127C55.3537 299.269 62.3531 297.986 69.4271 297.131C71.6134 296.621 71.6134 296.621 72.7201 294.615C73.9237 291.112 74.3102 288.032 73.4662 284.444C72.2462 282.558 72.2462 282.558 70.556 280.803C69.9204 280.109 69.2848 279.415 68.63 278.7C64.6448 274.544 60.5682 270.484 56.4662 266.444C54.7345 264.738 53.0053 263.029 51.2787 261.319C50.522 260.573 49.7653 259.828 48.9857 259.061C46.9876 256.985 45.1027 254.884 43.2254 252.703C39.1939 248.06 34.8742 243.743 30.5052 239.42C29.6741 238.593 28.8429 237.765 27.9865 236.913C25.3572 234.296 22.7246 231.682 20.0912 229.069C16.6014 225.605 13.1148 222.139 9.63024 218.67C8.82615 217.874 8.02207 217.079 7.19362 216.259C6.08644 215.156 6.08644 215.156 4.9569 214.032C4.30516 213.385 3.65343 212.739 2.98195 212.073C0.0662081 208.939 -0.0688704 206.011 0.016954 201.865C1.68527 192.871 13.6868 185.976 20.4662 180.444C21.3879 179.691 22.3095 178.938 23.2591 178.162C25.0344 176.715 26.8105 175.268 28.5873 173.822C31.917 171.071 35.1939 168.263 38.4662 165.444C43.478 161.125 48.5484 156.894 53.6849 152.725C56.2629 150.61 58.8121 148.467 61.3519 146.307C63.5393 144.447 65.7338 142.595 67.9291 140.744C69.3685 139.526 70.8004 138.3 72.2318 137.072C78.7754 131.603 84.683 127.737 93.4623 128.166C99.9504 129.064 104.565 131.621 109.001 136.44C112.08 140.652 113.005 145.387 114.13 150.404C116.31 159.916 119.176 166.754 127.466 172.444C135.464 176.66 144.788 176.725 153.529 174.752C168.4 169.703 178.432 160.67 186.466 147.444C190.238 139.753 191.538 130.595 189.466 122.256C186.676 114.431 181.994 109.964 174.654 106.256C171.685 104.867 168.705 103.543 165.681 102.279C159.145 99.3811 155.606 95.9193 152.466 89.4435C150.367 82.5928 151.149 75.7394 154.466 69.4435C159.299 63.4366 165.458 58.6921 171.447 53.8928C174.843 51.1383 178.157 48.3007 181.466 45.4435C186.482 41.1213 191.558 36.8887 196.697 32.7131C199.77 30.1943 202.81 27.6382 205.841 25.0685C206.382 24.6099 206.924 24.1512 207.481 23.6786C210.279 21.3048 213.073 18.9263 215.865 16.5451C237.038 -1.48944 237.038 -1.48944 245.466 1.44354ZM237.466 28.4435C236.146 29.5609 234.825 30.6782 233.505 31.7956C232.339 32.7824 231.172 33.769 230.006 34.7556C227.033 37.2699 224.062 39.7858 221.095 42.3068C216.107 46.5419 211.107 50.7543 206.029 54.881C201.175 58.8301 196.428 62.8912 191.689 66.9755C186.357 71.5603 180.935 76.0237 175.466 80.4435C176.933 83.3773 178.928 83.507 181.966 84.631C193.421 89.2864 202.925 97.6535 208.341 108.881C214.871 124.71 213.195 140.527 206.994 156.154C197.966 175.489 182.347 188.128 162.626 195.506C148.527 199.812 132.356 199.733 118.771 193.697C107.197 187.401 99.2024 177.643 94.4662 165.444C93.1452 160.845 92.2613 156.159 91.4662 151.444C84.3932 156.536 77.8658 162.187 71.2787 167.881C64.6027 173.636 57.8683 179.321 51.0287 184.881C45.9865 188.98 41.0554 193.2 36.1481 197.459C33.6547 199.614 31.2123 201.613 28.4662 203.444C30.0238 207.197 32.3442 209.538 35.2279 212.365C35.6968 212.829 36.1657 213.293 36.6487 213.771C38.1457 215.25 39.6491 216.722 41.1537 218.194C42.6395 219.652 44.1238 221.111 45.605 222.574C46.9613 223.912 48.3223 225.246 49.6837 226.579C51.8252 228.784 53.8432 231.005 55.8475 233.329C59.3138 237.328 62.997 241.038 66.7904 244.725C68.1626 246.075 69.5343 247.425 70.9056 248.776C73.034 250.867 75.1652 252.955 77.3043 255.035C79.3923 257.068 81.4671 259.114 83.5404 261.162C84.4936 262.08 84.4936 262.08 85.4661 263.016C92.2766 269.786 96.3858 278.019 96.7787 287.756C96.5205 296.702 93.3346 304.696 87.4662 311.444C80.8325 317.695 73.1809 318.866 64.4662 320.444C54.8835 322.447 47.0653 325.52 41.0287 333.569C36.3055 341.423 35.6493 350.288 37.4388 359.154C42.0501 373.918 50.5351 386.642 64.4545 394.029C73.8249 398.324 83.2327 400.483 93.431 397.608C101.036 394.115 106.526 388.342 109.689 380.569C110.319 378.866 110.933 377.158 111.529 375.444C115.133 365.212 119.41 357.343 129.466 352.444C137.462 349.085 147.696 349.073 155.841 352.006C164.512 356.223 169.953 362.942 175.216 370.819C176.438 372.605 177.661 374.392 178.884 376.178C179.788 377.509 179.788 377.509 180.71 378.867C183.275 382.63 185.897 386.352 188.529 390.069C189.012 390.754 189.496 391.44 189.994 392.146C193.633 397.295 197.326 402.403 201.029 407.506C206.988 415.72 212.761 424.052 218.466 432.444C223.246 429.42 227.425 426.003 231.654 422.256C236.935 417.626 242.276 413.101 247.732 408.678C252.467 404.809 257.115 400.837 261.774 396.877C263.513 395.404 265.258 393.939 267.005 392.475C267.585 391.988 268.164 391.501 268.762 391C269.861 390.076 270.962 389.155 272.065 388.235C275.377 385.449 278.449 382.538 281.466 379.444C280.427 378.97 279.388 378.497 278.318 378.01C262.973 370.82 252.539 361.957 246.228 345.901C241.58 330.91 245.131 315.045 251.591 301.194C261.248 283.172 277.509 270.47 297.029 264.569C313.379 260.72 329.681 262.269 344.091 271.131C356.537 279.933 362.269 292.188 365.021 306.803C365.168 307.674 365.315 308.546 365.466 309.444C372.539 304.351 379.067 298.7 385.654 293.006C392.33 287.251 399.064 281.566 405.904 276.006C410.946 271.907 415.877 267.687 420.784 263.428C423.278 261.273 425.72 259.274 428.466 257.444C427.14 254.501 425.706 252.441 423.413 250.179C422.486 249.257 422.486 249.257 421.54 248.317C420.873 247.662 420.205 247.008 419.517 246.334C418.826 245.649 418.135 244.963 417.423 244.256C415.213 242.064 412.996 239.878 410.779 237.694C408.58 235.522 406.382 233.349 404.187 231.173C402.823 229.822 401.457 228.472 400.087 227.126C396.234 223.313 392.614 219.373 389.074 215.269C386.952 212.86 384.686 210.636 382.365 208.42C381.011 207.105 381.011 207.105 379.63 205.764C377.771 203.967 375.903 202.178 374.029 200.397C366.038 192.589 360.475 184.736 360.216 173.256C360.366 164.25 363.562 156.232 369.466 149.444C376.1 143.192 383.751 142.021 392.466 140.444C402.295 138.389 410.084 135.314 415.966 126.819C420.951 118.926 420.727 108.245 418.783 99.299C417.84 96.5651 416.753 94.0326 415.466 91.4435C415.065 90.616 414.664 89.7884 414.251 88.9357C407.245 75.9797 396.339 67.347 382.47 62.7873C374.158 61.3615 366.373 61.69 358.845 65.5685C351.878 71.0595 348.282 77.1659 345.404 85.4435C342.102 94.8147 338.346 102.22 329.591 107.436C321.384 111.328 312.397 111.769 303.548 109.791C291.231 105.342 285.074 95.0761 278.031 84.7297C275.55 81.1051 273.007 77.5261 270.466 73.9435C269.466 72.5271 268.466 71.1104 267.466 69.6935C266.971 68.9923 266.476 68.291 265.966 67.5685C261.466 61.1935 261.466 61.1935 259.964 59.0651C258.972 57.6596 257.979 56.2543 256.986 54.8493C254.365 51.1397 251.752 47.4245 249.15 43.7014C248.606 42.926 248.063 42.1506 247.503 41.3517C246.462 39.8652 245.423 38.377 244.386 36.8869C243.916 36.2172 243.446 35.5476 242.962 34.8576C242.552 34.2693 242.141 33.681 241.718 33.0749C240.418 31.3808 239.007 29.9187 237.466 28.4435Z" fill="#26FFB8"/>
</svg>
