<svg version="1.1" id="Layer_1" xmlns="http://www.w3.org/2000/svg" xmlns:xlink="http://www.w3.org/1999/xlink" x="0px" y="0px"
	 viewBox="0 0 133.8 100.1" enable-background="new 0 0 133.8 100.1" xml:space="preserve">
<g id="P7Bpq9_3_">
	<g>
		<path fill="#CC6699" d="M62.7,58.4c1.8,0.3,2.6,1.3,2.2,3.1c-1.1,4.3-2.4,8.5-3.2,12.9c-0.2,1.1-0.3,2.1-0.1,3.3
			c0.6-0.1,0.7-0.6,0.9-1c3.6-6.8,6.5-13.9,9.6-20.9c1.2-2.7,2.1-5.3,2.7-8.1c0.2-0.7,0.6-1.1,1.3-1.3c1.8-0.5,3.8-0.8,5.7-0.5
			c1.6,0.3,2.1,1,1.5,2.6c-1.2,3.1-1.6,6.3-1,9.6c0.2,1.3,0.7,2.5,1.3,3.7c0.3,0.6,0.6,0.7,1,0.1c2.9-5.3,6.4-10.3,7.9-16.3
			c0.7-3.2,0.9-3.3,4.5-3.6c0.9,0,1.7-0.1,2.6,0c1.7,0.2,2.2,1,1.6,2.6c-1.1,3.1-1.6,6.2-1,9.5c0.4,2.1,1.5,3.9,2.4,5.7
			c0.3,0.6,0.7,0.5,1.2,0.3c3.1-1.4,6.3-2.2,9.7-2.4c7.4-0.3,13.9,1.5,18.2,8.1c2.1,3.3,2.8,6.9,0.8,10.6c-1.1,2-2.8,3.4-4.9,4.2
			c-0.5,0.2-1.1,0.4-1.4-0.2c-0.3-0.6,0.3-0.8,0.6-1.1c5.1-3.8,5.1-9.4,0-13.3c-2.9-2.2-6.1-3.2-9.7-3.5c-3.9-0.4-7.8-0.3-11.6,1.1
			c-0.8,0.3-1,0.6-0.7,1.4c2.2,6.1-0.5,9.7-5.2,12.8c-1.5,1-3.1,1.6-4.8,2.1c-3.5,1-5.6-0.9-4.9-4.5c0.6-3.3,2.4-6,4.6-8.5
			c0.6-0.6,1.2-1.3,1.8-1.8c0.5-0.4,1.1-0.7,1.2-1.2c0-0.4-1.8-1.9-3.7-9.9c-0.6,1.1-1.2,2.2-1.9,3.4c-1.6,2.9-5.5,9.1-5.6,9.5
			s0,0.8,0.2,1.2c0.5,1.2,0.8,2.5,0.9,3.8c0.5,4.9-1.8,8.2-6,10.4c-2.6,1.3-5.3,2.2-8.2,2.1c-1.2,0-2.3-0.3-2.9-1.4
			c-0.5-1.1-0.1-2.1,0.6-3c2.2-2.7,4.5-5.4,6.7-8.2c1.3-1.6,1.8-2.3,1.8-3.1c0-0.7-2.3-3.5-3.8-10.7c-0.8,1.9-1.6,3.8-2.4,5.6
			c-2.7,6.2-5.8,12.2-9.1,18.1c-0.7,1.3-1.6,2.5-2.8,3.4c-2.4,2.1-5,1.3-5.9-1.8c-0.5-1.8-0.7-3.7-0.4-5.6c0,0,0.1-0.9,0-1
			c-1.3,2.8-2.4,5.5-3.9,8.1c-1.2,2-2.7,3.5-5.3,3.2c-1.3-0.1-2.3-0.6-3.1-1.6c-2.1-2.7-3-5.8-3.4-9.2c-0.4-3.5,0.3-7,1.1-10.4
			c0.1-0.4,0.3-0.7,0.2-1.3c-2.1,1.2-4.2,2.5-6.3,3.7c-0.6,0.4-0.4,0.8-0.3,1.3c2.4,7.4,1.5,14.4-3,20.8c-3.3,4.7-7.9,7.6-13.6,8.7
			c-0.3,0.1-0.7,0.2-1,0.3c-1.6,0-3.1,0-4.7,0c-0.1-0.1-0.2-0.1-0.4-0.2c-4.6-1.1-6.9-3.9-7-8.6c-0.2-5.1,2.1-9,5.7-12.3
			c4.4-4,9.4-7,14.6-9.7c1.4-0.7,1.4-0.8,0.1-1.8c-2.5-1.8-5-3.6-7.5-5.4c-3.8-2.6-7.5-5.4-10.7-8.7c-3.1-3.1-5.4-6.8-6.6-11.1
			c-2.1-9.7,6.1-16.6,11.6-21.6c4.7-4.4,10.1-8,15.7-11c7.8-4.1,15.8-7.6,24.6-9.2c1.3-0.2,11.9-2.1,21.5,1.5c3.7,1.5,7.1,3.6,9,7.3
			c2.2,4.1,2.1,8.4,0.8,12.7c-2.6,8.3-8,14.3-15.4,18.5c-5.7,3.2-12,4.8-18.5,5.3c-4.1,0.3-8.2,0.2-12-1.4c-2.2-0.9-4.1-2.3-5.5-4.2
			c-0.5-0.6-0.8-1.3-1-2.1c-0.1-0.5-0.2-1,0.3-1.3c0.5-0.3,0.8,0.1,1.1,0.4c3.5,3.6,7.9,4.4,12.6,4c8.2-0.6,15.7-3.3,22.2-8.4
			c3.5-2.7,6.3-5.9,8.3-9.9c0.8-1.7,1.3-3.5,1.4-5.4c0.3-3.4-1.5-6.2-4.9-7.7c-4.1-1.8-8.4-2.1-12.8-1.7c-14.9,1.4-27.5,8.1-39.1,17
			c-3,2.3-5.5,5.1-7.5,8.4C9.1,40.1,9.8,46.4,15,51.8c3,3.2,6.6,5.7,10.1,8.4c1.9,1.5,3.9,3.1,5.6,4.9c0.5,0.6,1,0.6,1.7,0.2
			c3.8-2.1,7.7-4.2,11.5-6.3c0.6-0.3,0.9-0.7,1.3-1.2c2.2-2.6,4.6-4.9,7.7-6.3c0.7-0.3,1.4-0.6,2.1-0.7c3.2-0.8,5.5,0.8,5.8,4.1
			c0,0.4,0,0.8,0,1.2c0,0,0,2.2-0.2,3.4C61.2,58.1,62.7,58.4,62.7,58.4z M30.3,75.9c0.1-1-0.1-2.3-0.4-3.6c-0.1-0.5-0.3-0.8-0.9-0.4
			c-4.6,2.8-9.2,5.6-12.8,9.7c-2,2.3-3.3,4.9-3,8.1c0.1,1.6,1.1,2.6,2.7,2.8c0.7,0.1,1.3,0,1.9-0.1C24.8,90.8,30.3,83.7,30.3,75.9z
			 M46.4,74.1c0,1,0,1.9,0.2,2.9c0.2,1,0.1,2.4,1.3,2.6c1.1,0.2,1.5-1.2,1.9-2c1.9-3.7,3.2-7.6,4.7-11.4c1-2.6,1.9-5.3,2.4-8.1
			c0.1-0.6,0.3-1.3-0.2-1.7c-0.6-0.5-1.2-0.2-1.8,0.1c-0.8,0.3-1.4,0.8-2,1.4C48.7,62.4,46.7,67.9,46.4,74.1z M99.8,68.6
			c0-0.4,0-0.8,0-1.2c-0.1-0.7-0.3-1-1-0.4c-2.2,2.1-3.5,4.6-4.3,7.5c-0.1,0.2-0.2,0.5,0.1,0.7c0.3,0.2,0.6,0,0.8-0.1
			C98.2,74,99.8,71.6,99.8,68.6z M75.5,79.8c2.7-0.4,6.9-4.8,6.1-7.1C79.7,75.1,77.8,77.4,75.5,79.8z"/>
	</g>
</g>
</svg>
