<svg width="150" height="150" viewBox="0 0 150 150" fill="none" xmlns="http://www.w3.org/2000/svg">
<path d="M0 75V150H75H150V75V4.76837e-06H75H0V75ZM81.1521 18.4845C81.5323 18.8164 85.0922 23.4956 89.0323 28.8717C92.9378 34.2478 96.5668 39.0597 97.0507 39.5575C97.7074 40.2544 98.2604 40.4867 99.1935 40.4867C100.818 40.4867 101.613 39.6239 102.65 36.7699C105.311 29.4027 112.915 26.1836 120.829 29.0376C132.339 33.1858 137.35 47.7212 129.781 54.9558C127.569 57.1128 125.323 58.208 121.866 58.9049C120.38 59.1704 118.859 59.5686 118.548 59.7345C117.753 60.1327 117.131 61.8916 117.442 62.6881C117.581 63.0199 122.039 67.5664 127.362 72.8097C135.864 81.2058 137.039 82.5 137.143 83.4956C137.212 84.1593 137.074 84.8894 136.832 85.1549C136.348 85.719 118.41 100.221 116.406 101.648C114.747 102.876 113.053 103.108 111.118 102.412C109.078 101.648 107.972 100.321 107.488 97.9978C106.935 95.4093 106.037 93.5509 104.862 92.4558C98.9516 87.0465 86.371 93.75 86.3018 102.345C86.2673 105.896 88.0645 108.186 91.9009 109.513C95.0461 110.642 96.7742 112.633 96.7742 115.155C96.7742 117.345 95.6682 118.507 87.235 125.31C75.7949 134.569 74.2396 135.73 73.3756 135.73C71.7166 135.73 72.5115 136.726 59.6889 119.27C57.6498 116.515 55.6797 113.993 55.2995 113.662C54.47 112.931 52.5 112.832 51.7051 113.462C51.4286 113.695 50.6682 115.155 50.0806 116.715C48.1797 121.56 44.5507 124.58 39.6083 125.476C33.7673 126.504 26.129 122.821 22.3963 117.113C20.1843 113.794 19.5622 111.77 19.5622 107.688C19.5276 104.27 19.5968 103.905 20.5991 101.881C22.5691 97.9314 26.371 95.3429 31.3134 94.5796C34.3203 94.115 35.3571 93.2854 35.1843 91.5266C35.0806 90.4978 33.871 89.1704 25.4032 80.8407C20.0806 75.5973 15.5876 71.0177 15.4147 70.6858C14.8963 69.5907 15.7949 68.2633 18.5945 66.0066C20.0461 64.8451 24.6083 61.1615 28.6866 57.8761C32.7995 54.5575 36.6359 51.604 37.2235 51.3053C39.2627 50.3097 41.8203 50.7743 43.7903 52.5332C44.6198 53.2633 45.0346 54.2589 45.6221 57.146C45.8986 58.5398 46.3479 59.4027 47.3848 60.4978C49.2166 62.4889 51.0829 63.1858 54.159 62.9867C60.4839 62.5553 66.3594 56.8473 66.3594 51.1726C66.3594 47.5553 64.5968 45.365 60.5184 43.8717C57.1313 42.6106 55.576 40.2876 56.129 37.3341C56.2673 36.7035 56.7512 35.7412 57.2696 35.177C58.1336 34.1814 76.0023 19.646 77.7304 18.5177C78.871 17.7544 80.2535 17.7544 81.1521 18.4845Z" fill="black"/>
<path d="M70.4724 31.3606C65.841 35.0774 62.0046 38.2633 61.9355 38.4624C61.8664 38.6615 62.0392 38.8274 62.3157 38.8274C63.5254 38.8274 67.1198 40.9845 68.7443 42.677C71.0254 45.0664 71.9931 47.4557 72.0277 50.9403C72.0968 60.1991 63.2834 68.4292 53.2258 68.4292C49.735 68.4624 47.3848 67.6991 44.7926 65.8075C42.6498 64.2146 40.5761 60.9624 40.0576 58.3407C39.8157 57.2787 39.5392 56.4491 39.3664 56.4823C39.2281 56.5487 35.3572 59.6018 30.7604 63.3186L22.4655 70.0553L31.0023 78.5177C35.7373 83.1969 39.8848 87.5442 40.265 88.208C40.7143 89.0708 40.9217 90.0995 40.9562 91.5929C40.9562 94.281 39.6429 96.8363 37.5 98.1969C35.7719 99.3584 35.3917 99.4579 32.5922 99.8894C31.3479 100.088 29.7581 100.52 29.0668 100.852C23.5023 103.639 23.5369 111.139 29.2051 116.515C31.6244 118.838 33.871 119.867 36.8088 120.066C39.6774 120.232 41.371 119.602 43.0645 117.743C44.0668 116.648 44.2742 116.25 45.4493 113.097C46.8318 109.48 50.1843 107.356 54.1244 107.588C57.8572 107.821 58.7212 108.551 65.0461 117.146C68.053 121.261 71.2673 125.608 72.1659 126.803L73.8249 128.993L82.3272 122.157C87.0277 118.407 90.8641 115.221 90.8986 115.055C90.8986 114.923 90.6913 114.823 90.4493 114.823C89.3088 114.823 85.6797 112.699 84.159 111.139C81.636 108.551 80.7373 106.327 80.7028 102.71C80.7028 100.653 80.9102 99.1593 81.3595 97.8982C85.2996 86.7478 99.5737 81.438 108.111 87.9093C110.15 89.469 112.12 92.6549 112.638 95.2433C113.018 97.0686 113.122 97.2013 113.675 96.8363C114.021 96.604 117.892 93.5177 122.281 89.9668L130.265 83.5287L121.728 75.1327C112.12 65.6416 111.498 64.8451 111.74 61.5597C112.051 57.146 114.747 54.5243 119.724 53.761C120.968 53.5619 122.419 53.2633 122.938 53.0641C126.809 51.6703 128.675 47.5553 127.362 43.2743C126.567 40.6195 125.461 38.8938 123.214 36.8695C119.412 33.4181 114.85 32.4226 111.498 34.3141C109.666 35.3429 108.525 36.8695 107.661 39.3916C106.037 44.2367 101.924 46.8584 97.3963 45.8628C94.3203 45.1659 93.5945 44.469 88.2373 37.2013C85.4378 33.4513 82.189 29.0708 81.0138 27.4779L78.871 24.5907L70.4724 31.3606Z" fill="black"/>
</svg>
